<svg width="156" height="156" viewBox="0 0 156 156" fill="none" xmlns="http://www.w3.org/2000/svg">
<path d="M9.75 39C9.75 36.4141 10.7772 33.9342 12.6057 32.1057C14.4342 30.2772 16.9141 29.25 19.5 29.25H39C41.5859 29.25 44.0658 30.2772 45.8943 32.1057C47.7228 33.9342 48.75 36.4141 48.75 39V58.5C48.75 61.0859 47.7228 63.5658 45.8943 65.3943C44.0658 67.2228 41.5859 68.25 39 68.25H19.5C16.9141 68.25 14.4342 67.2228 12.6057 65.3943C10.7772 63.5658 9.75 61.0859 9.75 58.5V39ZM58.5 39C58.5 36.4141 59.5272 33.9342 61.3557 32.1057C63.1842 30.2772 65.6641 29.25 68.25 29.25H87.75C90.3359 29.25 92.8158 30.2772 94.6443 32.1057C96.4728 33.9342 97.5 36.4141 97.5 39V58.5C97.5 61.0859 96.4728 63.5658 94.6443 65.3943C92.8158 67.2228 90.3359 68.25 87.75 68.25H68.25C65.6641 68.25 63.1842 67.2228 61.3557 65.3943C59.5272 63.5658 58.5 61.0859 58.5 58.5V39ZM107.25 39C107.25 36.4141 108.277 33.9342 110.106 32.1057C111.934 30.2772 114.414 29.25 117 29.25H136.5C139.086 29.25 141.566 30.2772 143.394 32.1057C145.223 33.9342 146.25 36.4141 146.25 39V58.5C146.25 61.0859 145.223 63.5658 143.394 65.3943C141.566 67.2228 139.086 68.25 136.5 68.25H117C114.414 68.25 111.934 67.2228 110.106 65.3943C108.277 63.5658 107.25 61.0859 107.25 58.5V39ZM9.75 87.75C9.75 85.1641 10.7772 82.6842 12.6057 80.8557C14.4342 79.0272 16.9141 78 19.5 78H39C41.5859 78 44.0658 79.0272 45.8943 80.8557C47.7228 82.6842 48.75 85.1641 48.75 87.75V107.25C48.75 109.836 47.7228 112.316 45.8943 114.144C44.0658 115.973 41.5859 117 39 117H19.5C16.9141 117 14.4342 115.973 12.6057 114.144C10.7772 112.316 9.75 109.836 9.75 107.25V87.75ZM58.5 87.75C58.5 85.1641 59.5272 82.6842 61.3557 80.8557C63.1842 79.0272 65.6641 78 68.25 78H87.75C90.3359 78 92.8158 79.0272 94.6443 80.8557C96.4728 82.6842 97.5 85.1641 97.5 87.75V107.25C97.5 109.836 96.4728 112.316 94.6443 114.144C92.8158 115.973 90.3359 117 87.75 117H68.25C65.6641 117 63.1842 115.973 61.3557 114.144C59.5272 112.316 58.5 109.836 58.5 107.25V87.75ZM107.25 87.75C107.25 85.1641 108.277 82.6842 110.106 80.8557C111.934 79.0272 114.414 78 117 78H136.5C139.086 78 141.566 79.0272 143.394 80.8557C145.223 82.6842 146.25 85.1641 146.25 87.75V107.25C146.25 109.836 145.223 112.316 143.394 114.144C141.566 115.973 139.086 117 136.5 117H117C114.414 117 111.934 115.973 110.106 114.144C108.277 112.316 107.25 109.836 107.25 107.25V87.75Z" fill="#F34336"/>
</svg>
