<svg width="1024" height="1024" viewBox="0 0 1024 1024" fill="none" xmlns="http://www.w3.org/2000/svg">
<g filter="url(#filter0_d)">
<ellipse cx="512" cy="512.5" rx="273" ry="277.5" fill="#F34336"/>
<path d="M512 64C264.6 64 64 264.6 64 512C64 759.4 264.6 960 512 960C759.4 960 960 759.4 960 512C960 264.6 759.4 64 512 64ZM677.4 682.2L611.4 681.9L512 563.4L412.7 681.8L346.6 682.1C342.2 682.1 338.6 678.6 338.6 674.1C338.6 672.2 339.3 670.4 340.5 668.9L470.6 513.9L340.5 359C339.292 357.534 338.621 355.699 338.6 353.8C338.6 349.4 342.2 345.8 346.6 345.8L412.7 346.1L512 464.6L611.3 346.2L677.3 345.9C681.7 345.9 685.3 349.4 685.3 353.9C685.3 355.8 684.6 357.6 683.4 359.1L553.5 514L683.5 669C684.7 670.5 685.4 672.3 685.4 674.2C685.4 678.6 681.8 682.2 677.4 682.2Z" fill="white"/>
</g>
<defs>
<filter id="filter0_d" x="-4" y="0" width="1032" height="1032" filterUnits="userSpaceOnUse" color-interpolation-filters="sRGB">
<feFlood flood-opacity="0" result="BackgroundImageFix"/>
<feColorMatrix in="SourceAlpha" type="matrix" values="0 0 0 0 0 0 0 0 0 0 0 0 0 0 0 0 0 0 127 0" result="hardAlpha"/>
<feOffset dy="4"/>
<feGaussianBlur stdDeviation="2"/>
<feComposite in2="hardAlpha" operator="out"/>
<feColorMatrix type="matrix" values="0 0 0 0 0 0 0 0 0 0 0 0 0 0 0 0 0 0 0.25 0"/>
<feBlend mode="normal" in2="BackgroundImageFix" result="effect1_dropShadow"/>
<feBlend mode="normal" in="SourceGraphic" in2="effect1_dropShadow" result="shape"/>
</filter>
</defs>
</svg>
