<svg width="67" height="51" viewBox="0 0 67 51" fill="none" xmlns="http://www.w3.org/2000/svg">
<path d="M63.3542 0.500095C63.0703 0.470834 62.784 0.470834 62.5001 0.500095H4.16673C3.79286 0.505856 3.42147 0.561915 3.06256 0.666762L33.1667 30.6459L63.3542 0.500095Z" fill="#F34336"/>
<path d="M66.4376 3.39587L36.1043 33.6042C35.3236 34.3803 34.2675 34.8158 33.1668 34.8158C32.066 34.8158 31.0099 34.3803 30.2293 33.6042L0.166768 3.62504C0.0743505 3.96471 0.025349 4.31472 0.0209351 4.66671V46.3334C0.0209351 47.4384 0.459922 48.4983 1.24132 49.2797C2.02273 50.0611 3.08253 50.5 4.1876 50.5H62.5209C63.626 50.5 64.6858 50.0611 65.4672 49.2797C66.2486 48.4983 66.6876 47.4384 66.6876 46.3334V4.66671C66.671 4.23266 66.5867 3.80386 66.4376 3.39587ZM7.04177 46.3334H4.14594V43.3542L19.2918 28.3334L22.2293 31.2709L7.04177 46.3334ZM62.4793 46.3334H59.5626L44.3751 31.2709L47.3126 28.3334L62.4584 43.3542L62.4793 46.3334Z" fill="#F34336"/>
</svg>
