<svg width="59" height="59" viewBox="0 0 59 59" fill="none" xmlns="http://www.w3.org/2000/svg">
<path d="M56.3673 0.203125H2.46106C1.16467 0.203125 0.11731 1.25049 0.11731 2.54688V56.4531C0.11731 57.7495 1.16467 58.7969 2.46106 58.7969H56.3673C57.6637 58.7969 58.7111 57.7495 58.7111 56.4531V2.54688C58.7111 1.25049 57.6637 0.203125 56.3673 0.203125ZM17.4977 50.1323H8.80383V22.1685H17.4977V50.1323ZM13.1544 18.3452C12.1578 18.3452 11.1835 18.0497 10.3549 17.496C9.5262 16.9423 8.88033 16.1553 8.49893 15.2345C8.11754 14.3138 8.01775 13.3006 8.21218 12.3231C8.40662 11.3456 8.88654 10.4477 9.59126 9.743C10.296 9.03827 11.1939 8.55835 12.1713 8.36391C13.1488 8.16948 14.162 8.26927 15.0828 8.65067C16.0036 9.03206 16.7905 9.67793 17.3442 10.5066C17.8979 11.3353 18.1935 12.3095 18.1935 13.3062C18.1862 16.0894 15.9303 18.3452 13.1544 18.3452ZM50.0465 50.1323H41.36V36.5313C41.36 33.2866 41.3014 29.1191 36.8409 29.1191C32.3219 29.1191 31.6261 32.6494 31.6261 36.2969V50.1323H22.9469V22.1685H31.2819V25.9917H31.399C32.5563 23.7944 35.3908 21.4727 39.6242 21.4727C48.4279 21.4727 50.0465 27.2661 50.0465 34.7954V50.1323Z" fill="#F34336"/>
</svg>
