<svg width="100" height="100" viewBox="0 0 100 100" fill="none" xmlns="http://www.w3.org/2000/svg">
<path fill-rule="evenodd" clip-rule="evenodd" d="M100 100H0V0H100V100ZM79.377 42.3855V34.6297C78.0996 34.0609 70.785 31.9686 65.0062 34.1736C56.682 37.3498 56.9811 46.9182 60.1398 50.6734C64.2326 55.5391 74.4137 57.3531 72.7477 62.1289C71.885 64.602 67.8574 65.0324 64.3066 64.2021C61 63.4291 58.125 61.4705 58.125 61.4705V69.6824C58.125 69.6824 60.9668 71.2668 64.4547 71.6438C68.926 72.1268 74.5307 71.2146 77.3385 68.7189C82.3365 64.2762 83.1041 54.4344 73.6324 49.8643C65.7506 46.0615 65.8803 44.9762 65.9355 43.0256C66.0098 40.4131 71.4949 38.8049 79.377 42.3855ZM36.873 20.6201C43.4311 20.8482 53.0688 23.8707 53.0688 36.7588C53.0688 49.6469 41.277 53.876 30.5174 52.9545V71.2031H22.502V20.791C22.502 20.791 30.3146 20.392 36.8729 20.6201H36.873ZM38.9545 44.9707C42.4107 43.7096 44.6572 40.9984 44.6572 36.7871C44.6572 32.3221 42.3711 29.2984 38.8746 28.4443C35.0883 27.5191 30.5174 28.0645 30.5174 28.0645V45.6512C30.5174 45.6512 36.8445 45.7406 38.9545 44.9707Z" fill="white"/>
</svg>
