<svg width="88" height="88" viewBox="0 0 88 88" fill="none" xmlns="http://www.w3.org/2000/svg">
<path d="M0.25 0.25V87.75H87.75V0.25H0.25ZM47.125 68.2188C47.125 76.7363 42.0937 80.8887 34.8105 80.8887C28.2324 80.8887 24.4141 77.4824 22.4766 73.3711L29.1719 69.3184C30.4629 71.6094 31.4434 73.5469 34.2617 73.5469C36.6055 73.5469 38.5312 72.4902 38.5312 68.3789V40.875H47.125V68.2188ZM66.5293 80.6934C58.8945 80.6934 53.9609 77.248 51.5527 72.4902L58.2578 68.6094C60.0156 71.4883 62.3105 73.4062 66.3633 73.4062C69.7695 73.4062 71.748 71.8984 71.748 69.5488C71.748 66.7305 69.7109 65.7324 65.9512 64.0801L63.8965 63.1973C57.9629 60.6738 54.0293 57.502 54.0293 50.8047C54.0293 44.6387 58.7266 40.1348 66.0684 40.1348C71.2969 40.1348 75.0527 41.7598 77.7578 46.5176L71.3438 50.6406C69.9336 48.1152 68.4141 47.125 66.0586 47.125C63.6504 47.125 62.123 48.6523 62.123 50.6406C62.123 53.1074 63.6504 54.1055 67.1738 55.6328L69.2285 56.5137C76.2188 59.5098 80.1543 62.5684 80.1543 69.4355C80.1562 76.8379 74.3418 80.6934 66.5293 80.6934Z" fill="#F8F8F8"/>
</svg>
