<svg width="72" height="82" viewBox="0 0 72 82" fill="none" xmlns="http://www.w3.org/2000/svg">
<path d="M0.179749 0.375L6.62506 73.2852L36.0001 81.625L65.2579 73.2852L71.8301 0.375H0.179749ZM58.2852 17.6699L57.8165 22.2793L57.6505 24.1836H23.334L24.1348 33.3828H56.8594L56.5372 35.7559L54.4669 59.4082L54.3008 60.9902L36.0391 66.0293V66.0586H35.9219L35.8926 66.0684V66.0586H35.8829L17.4649 60.9805L16.3516 46.8594H25.2481L25.8829 54.0078L35.8829 56.7129H35.9219L45.8829 54.0176L46.9962 42.4355H35.8926V42.4258H15.8829L13.6563 17.6699L13.4903 15.2969H58.4415L58.2852 17.6699Z" fill="white"/>
</svg>
