<svg width="27" height="26" viewBox="0 0 27 26" fill="none" xmlns="http://www.w3.org/2000/svg">
<g clip-path="url(#clip0)">
<path fill-rule="evenodd" clip-rule="evenodd" d="M13.561 0.135254C6.56141 0.135254 0.892029 5.80464 0.892029 12.8043C0.892029 18.4103 4.51853 23.1453 9.55446 24.824C10.1879 24.9348 10.4255 24.5548 10.4255 24.2222C10.4255 23.9213 10.4096 22.9236 10.4096 21.8626C7.22653 22.4485 6.40305 21.0866 6.14967 20.374C6.00714 20.0098 5.38953 18.8854 4.85109 18.5845C4.40768 18.347 3.77423 17.761 4.83526 17.7452C5.83294 17.7293 6.54557 18.6637 6.78312 19.0437C7.92333 20.9599 9.7445 20.4215 10.473 20.0889C10.5838 19.2655 10.9164 18.7112 11.2806 18.3945C8.46176 18.0777 5.51622 16.985 5.51622 12.1391C5.51622 10.7614 6.00714 9.62117 6.81479 8.73434C6.6881 8.41762 6.24469 7.11905 6.94148 5.37706C6.94148 5.37706 8.00251 5.0445 10.4255 6.67563C11.439 6.39058 12.5158 6.24805 13.5927 6.24805C14.6696 6.24805 15.7464 6.39058 16.76 6.67563C19.1829 5.02866 20.2439 5.37706 20.2439 5.37706C20.9407 7.11905 20.4973 8.41762 20.3706 8.73434C21.1783 9.62117 21.6692 10.7455 21.6692 12.1391C21.6692 17.0009 18.7078 18.0777 15.889 18.3945C16.3482 18.7904 16.7441 19.5505 16.7441 20.7382C16.7441 22.4327 16.7283 23.7946 16.7283 24.2222C16.7283 24.5548 16.9658 24.9507 17.5993 24.824C20.1143 23.9749 22.2997 22.3585 23.8479 20.2023C25.3962 18.0461 26.2293 15.4587 26.23 12.8043C26.23 5.80464 20.5607 0.135254 13.561 0.135254Z" fill="#F8F8F8"/>
</g>
<defs>
<clipPath id="clip0">
<rect width="25.338" height="25.338" fill="white" transform="translate(0.892029 0.135254)"/>
</clipPath>
</defs>
</svg>
