<svg width="89" height="100" viewBox="0 0 89 100" fill="none" xmlns="http://www.w3.org/2000/svg">
<path d="M44.3708 100C43.0292 100 41.7042 99.6505 40.525 98.9713L28.2958 91.7296C26.4667 90.7088 27.3583 90.3463 27.9625 90.138C30.3958 89.288 30.8917 89.0963 33.4917 87.6171C33.7667 87.463 34.125 87.5171 34.4042 87.6796L43.8 93.2588C43.9759 93.3494 44.1709 93.3967 44.3688 93.3967C44.5666 93.3967 44.7616 93.3494 44.9375 93.2588L81.5792 72.1046C81.7494 72.002 81.8902 71.8572 81.988 71.6842C82.0858 71.5112 82.1373 71.3159 82.1375 71.1171V28.8296C82.138 28.627 82.0861 28.4276 81.9868 28.2509C81.8875 28.0742 81.7442 27.9262 81.5708 27.8213L44.9458 6.68797C44.7743 6.58845 44.5795 6.53604 44.3812 6.53604C44.183 6.53604 43.9882 6.58845 43.8167 6.68797L7.19167 27.8213C7.0166 27.9233 6.87113 28.0692 6.76957 28.2446C6.66802 28.4199 6.61388 28.6187 6.6125 28.8213V71.1046C6.6125 71.5088 6.83333 71.8963 7.18333 72.088L17.2167 77.8838C22.6667 80.6088 25.9958 77.4005 25.9958 74.1713V32.438C25.9936 32.298 26.0195 32.159 26.0722 32.0293C26.1248 31.8996 26.2031 31.7819 26.3022 31.6831C26.4014 31.5843 26.5195 31.5065 26.6494 31.4544C26.7793 31.4022 26.9184 31.3768 27.0583 31.3796H31.7C32.2792 31.3796 32.7542 31.838 32.7542 32.438V74.188C32.7542 81.4546 28.7958 85.6255 21.9042 85.6255C19.7833 85.6255 18.1125 85.6255 13.4542 83.3338L3.84167 77.7921C2.67327 77.1098 1.70387 76.1334 1.02989 74.9602C0.355915 73.7869 0.000845365 72.4577 0 71.1046V28.8213C0 26.0713 1.46667 23.5005 3.84167 22.1463L40.525 0.983801C41.7063 0.338294 43.0309 0 44.3771 0C45.7233 0 47.0478 0.338294 48.2292 0.983801L84.8625 22.1505C87.2292 23.5213 88.7042 26.0796 88.7042 28.8296V71.1171C88.7011 72.4681 88.345 73.7947 87.6712 74.9656C86.9973 76.1365 86.0291 77.1109 84.8625 77.7921L48.2292 98.9546C47.0543 99.6303 45.7219 99.9838 44.3667 99.9796V100H44.3708ZM55.6875 70.863C39.6542 70.863 36.2958 63.5046 36.2958 57.3296C36.2958 56.7463 36.7667 56.2755 37.3542 56.2755H42.0875C42.6125 56.2755 43.05 56.6546 43.1333 57.1713C43.85 61.9963 45.9792 64.4296 55.675 64.4296C63.3958 64.4296 66.6792 62.6838 66.6792 58.588C66.6792 56.2296 65.7417 54.4796 53.7458 53.3046C43.7125 52.313 37.5125 50.1046 37.5125 42.0796C37.5125 34.6838 43.75 30.2838 54.1958 30.2838C65.925 30.2838 71.7417 34.3546 72.475 43.1046C72.4877 43.2519 72.4697 43.4001 72.422 43.54C72.3744 43.6799 72.2982 43.8084 72.1983 43.9173C72.0984 44.0262 71.977 44.1132 71.8417 44.1727C71.7065 44.2322 71.5603 44.2629 71.4125 44.263H66.65C66.4101 44.2626 66.1776 44.1802 65.9911 44.0293C65.8047 43.8785 65.6754 43.6683 65.625 43.4338C64.4792 38.363 61.7083 36.738 54.1792 36.738C45.75 36.738 44.7667 39.6755 44.7667 41.8755C44.7667 44.5421 45.9208 45.3255 57.2958 46.8296C68.5583 48.3255 73.9083 50.4338 73.9083 58.3505C73.9083 66.3296 67.2458 70.9088 55.6375 70.9088L55.6875 70.8671V70.863Z" fill="white"/>
</svg>
