<svg width="75" height="75" viewBox="0 0 75 75" fill="none" xmlns="http://www.w3.org/2000/svg">
<g clip-path="url(#clip0)">
<path fill-rule="evenodd" clip-rule="evenodd" d="M54.4219 44.9439C53.4906 44.4782 48.925 42.2345 48.075 41.922C47.225 41.6126 46.6063 41.4595 45.9844 42.3907C45.3656 43.3158 43.5875 45.4095 43.0469 46.0283C42.5031 46.6501 41.9625 46.7251 41.0344 46.2626C40.1063 45.7939 37.1125 44.8158 33.5656 41.6533C30.8063 39.1908 28.9406 36.1501 28.4 35.2189C27.8594 34.2908 28.3406 33.7876 28.8063 33.3251C29.225 32.9095 29.7344 32.2407 30.2 31.7001C30.6656 31.1564 30.8188 30.7689 31.1281 30.147C31.4406 29.5283 31.2844 28.9876 31.05 28.522C30.8188 28.0564 28.9625 23.4845 28.1875 21.6251C27.4344 19.8158 26.6688 20.0626 26.1 20.0314C25.5563 20.0064 24.9375 20.0001 24.3188 20.0001C23.7 20.0001 22.6938 20.2314 21.8438 21.1626C20.9906 22.0908 18.5938 24.3376 18.5938 28.9095C18.5938 33.4783 21.9188 37.8939 22.3844 38.5158C22.85 39.1345 28.9313 48.5157 38.2469 52.5376C40.4656 53.4939 42.1938 54.0657 43.5406 54.4907C45.7656 55.2001 47.7906 55.1001 49.3906 54.8595C51.1719 54.5939 54.8844 52.6126 55.6594 50.4439C56.4313 48.2751 56.4313 46.4157 56.2 46.0283C55.9688 45.6408 55.35 45.4095 54.4188 44.9439H54.4219ZM37.4781 68.0782H37.4656C31.9326 68.0793 26.5012 66.5919 21.7406 63.772L20.6156 63.1032L8.92188 66.172L12.0438 54.772L11.3094 53.6032C8.21606 48.6793 6.57905 42.9807 6.5875 37.1657C6.59375 20.1345 20.45 6.27825 37.4906 6.27825C45.7406 6.27825 53.4969 9.497 59.3281 15.3345C62.2043 18.1988 64.484 21.605 66.0352 25.3561C67.5865 29.1071 68.3786 33.1285 68.3656 37.1876C68.3594 54.2189 54.5031 68.0782 37.4781 68.0782ZM63.7656 10.9001C60.3225 7.43426 56.2257 4.68618 51.7128 2.81513C47.1998 0.944077 42.3604 -0.0127383 37.475 0.000128055C16.9938 0.000128055 0.31875 16.672 0.3125 37.1626C0.309375 43.7126 2.01875 50.1064 5.27188 55.7407L0 75.0001L19.7 69.8314C25.1496 72.8005 31.2565 74.3562 37.4625 74.3564H37.4781C57.9594 74.3564 74.6344 57.6845 74.6406 37.1908C74.6557 32.3072 73.7024 27.4692 71.8357 22.9565C69.9691 18.4438 67.2261 14.346 63.7656 10.9001Z" fill="#F34336"/>
</g>
<defs>
<clipPath id="clip0">
<rect width="75" height="75" fill="white"/>
</clipPath>
</defs>
</svg>
